<?xml version="1.0" standalone="no"?>
<!DOCTYPE svg PUBLIC "-//W3C//DTD SVG 20010904//EN"
 "http://www.w3.org/TR/2001/REC-SVG-20010904/DTD/svg10.dtd">
<svg version="1.0" xmlns="http://www.w3.org/2000/svg"
 width="2000.000000pt" height="2000.000000pt" viewBox="0 0 2000.000000 2000.000000"
 preserveAspectRatio="xMidYMid meet">
<metadata>
Created by potrace 1.14, written by Peter Selinger 2001-2017
</metadata>
<g transform="translate(0.000000,2000.000000) scale(0.100000,-0.100000)"
fill="#000000" stroke="none">
<path d="M9740 19994 c-603 -19 -1155 -81 -1720 -194 -1591 -318 -3093 -1031
-4360 -2069 -313 -256 -756 -676 -1030 -976 -1016 -1112 -1766 -2424 -2196
-3843 -229 -755 -362 -1506 -415 -2342 -15 -238 -15 -902 0 -1140 53 -836 186
-1587 415 -2342 393 -1297 1080 -2551 1956 -3573 370 -431 851 -903 1270
-1246 1012 -829 2189 -1459 3428 -1835 755 -229 1506 -362 2342 -415 238 -15
902 -15 1140 0 515 33 940 87 1410 181 1591 318 3093 1031 4360 2069 313 256
756 676 1030 976 1016 1112 1766 2424 2196 3843 229 755 362 1506 415 2342 15
238 15 902 0 1140 -53 836 -186 1587 -415 2342 -393 1297 -1080 2551 -1956
3573 -370 431 -851 903 -1270 1246 -1012 829 -2189 1459 -3428 1835 -753 228
-1541 368 -2332 413 -196 12 -679 20 -840 15z m-160 -3974 c0 -13 7 -20 20
-20 13 0 20 -7 20 -20 0 -11 -3 -20 -7 -20 -8 0 -9 -238 -1 -245 2 -2 373 -5
825 -6 452 -1 833 -4 847 -6 20 -4 26 -11 26 -33 0 -23 -5 -29 -31 -34 -17 -3
-782 -6 -1698 -6 -1283 0 -1670 -3 -1679 -12 -9 -9 -12 -9 -12 0 0 7 -13 12
-30 12 l-30 0 0 -132 0 -133 42 0 c33 0 43 -4 46 -17 2 -13 -3 -18 -17 -18
-14 0 -21 -6 -21 -20 0 -18 -7 -20 -85 -20 l-85 0 0 -131 c0 -126 1 -130 20
-124 18 6 20 2 20 -34 0 -40 -1 -41 -35 -41 l-35 0 0 -145 0 -145 -25 0 -25 0
0 145 c0 135 -1 145 -19 145 -17 0 -19 -17 -25 -291 -4 -161 -11 -300 -15
-311 -4 -11 -6 39 -5 111 2 123 1 131 -16 131 -18 0 -20 -10 -23 -117 l-3
-118 -2 123 -2 122 27 0 c31 0 27 8 -7 13 -16 3 -27 12 -30 28 -6 22 -7 23
-12 4 -6 -26 -68 -35 -68 -10 0 8 -6 15 -12 16 -10 0 -10 2 0 6 6 2 12 11 12
19 0 18 66 19 73 2 3 -7 6 60 6 150 1 155 2 162 21 162 14 0 20 7 20 21 0 11
4 18 9 15 5 -3 23 -3 40 0 l31 7 0 143 c0 137 1 144 20 144 13 0 20 7 20 20 0
17 7 20 43 20 l42 0 -3 130 -3 130 -95 0 c-68 0 -94 -3 -95 -12 0 -7 0 -73 1
-146 1 -126 0 -134 -22 -157 -17 -19 -34 -25 -65 -25 l-43 0 0 -124 c0 -115
-1 -124 -20 -129 -15 -4 -20 -14 -20 -41 0 -35 -1 -36 -40 -36 l-40 0 0 -304
c0 -167 -3 -318 -6 -335 -5 -26 -11 -31 -34 -31 -23 0 -29 5 -34 31 -3 17 -6
168 -6 335 0 296 -1 304 -20 304 -19 0 -20 -10 -22 -490 -2 -383 -6 -492 -16
-502 -10 -10 -15 -10 -22 2 -5 8 -10 11 -10 5 0 -5 -6 0 -14 11 -12 16 -15 85
-16 365 -3 640 -3 647 20 654 11 3 19 12 17 18 -1 7 14 13 41 15 l42 3 0 141
c0 132 2 143 22 165 15 16 33 23 60 23 l38 0 0 148 c0 194 -1 192 145 192
l103 0 4 139 c2 77 6 142 9 146 4 3 16 7 27 8 11 0 18 6 15 13 -2 7 4 14 14
17 10 3 444 5 966 6 941 1 947 1 947 -19z m-772 -694 c-3 -27 -6 -31 -32 -29
-50 4 -62 52 -16 63 39 10 51 1 48 -34z m742 -640 c0 -30 -13 -46 -36 -46 -20
0 -24 5 -24 30 0 27 3 30 30 30 19 0 30 -5 30 -14z m-2512 -70 c-16 -11 -16
-14 -1 -29 12 -12 15 -35 14 -107 -1 -52 2 -97 8 -104 9 -11 14 -296 19 -1041
0 -11 -2 -307 -4 -657 l-5 -638 61 0 c53 0 60 -2 60 -20 0 -13 7 -20 20 -20
19 0 20 -7 20 -145 l0 -145 60 0 60 0 0 -335 0 -335 23 0 c15 0 18 3 9 9 -10
6 -13 70 -15 284 -1 152 1 273 5 269 4 -4 9 -52 11 -107 1 -55 4 101 5 348 l2
447 -75 -1 c-42 -1 -79 2 -83 5 -7 8 -4 349 4 383 6 23 30 33 82 33 l34 0 -2
143 c-3 192 -4 187 20 187 20 0 20 7 20 645 0 638 0 645 20 645 13 0 20 -7 20
-20 0 -11 6 -20 14 -20 7 0 16 -14 20 -31 3 -17 6 -299 6 -625 l0 -594 65 0
65 0 1 123 c0 67 0 141 -1 165 l-2 42 41 0 41 0 0 -40 c0 -31 -4 -40 -17 -40
-13 0 -14 -3 -6 -8 8 -5 13 -46 15 -122 l3 -115 83 -3 82 -3 0 166 0 165 545
0 545 0 0 150 c0 143 1 150 20 150 11 0 20 6 20 14 0 16 21 26 58 26 26 0 27
1 30 73 2 39 0 95 -3 124 l-6 52 -62 3 c-60 3 -62 4 -65 32 -2 16 2 32 10 37
15 10 241 12 287 3 27 -6 31 -10 31 -40 l0 -34 -65 0 -65 0 0 -125 c0 -104 -2
-125 -15 -125 -10 0 -15 -10 -15 -34 0 -36 -12 -46 -56 -46 l-24 0 0 -130 0
-130 160 0 160 0 0 150 c0 143 1 150 20 150 13 0 20 7 20 18 0 27 70 29 77 3
3 -11 13 -21 24 -24 17 -5 18 -15 16 -151 l-2 -146 183 0 182 0 0 -40 0 -40
-180 0 -180 0 0 -165 0 -165 -39 0 -38 0 1 163 c1 161 1 162 -21 165 -23 3
-23 3 -24 -147 -2 -169 -1 -161 -13 -180 -5 -8 -9 -53 -8 -100 1 -119 -5 -151
-27 -151 -17 0 -19 18 -26 290 l-7 290 -139 0 -139 0 0 -125 0 -125 39 0 c43
0 49 -8 43 -52 -4 -25 -8 -28 -44 -28 -31 0 -41 4 -45 20 -5 18 -19 25 -49 21
-15 -2 -15 5 -21 157 l-4 132 -265 0 -264 0 0 -165 0 -165 -240 0 -240 0 0
-295 c0 -288 0 -295 20 -295 19 0 20 7 20 154 0 127 3 157 16 170 13 14 66 16
420 16 l404 0 0 -210 0 -210 -82 -1 c-46 -1 -87 -1 -92 0 -5 1 -4 -4 2 -11 6
-8 10 -54 9 -121 -2 -81 1 -108 11 -112 8 -3 110 -5 228 -5 207 0 214 -1 214
-20 0 -11 7 -20 15 -20 9 0 12 6 9 15 -4 8 -1 15 5 15 6 0 11 -13 11 -29 0
-27 -4 -30 -42 -36 l-43 -6 3 -125 3 -124 120 0 119 0 0 130 0 130 -27 1 c-16
1 -34 1 -40 0 -7 -1 -13 3 -13 9 0 5 7 10 16 10 9 0 18 9 21 19 5 21 41 31
115 31 33 0 50 5 54 15 3 8 2 148 -3 312 -4 164 -7 308 -5 321 3 19 9 22 44
22 l41 0 -4 -332 -4 -333 28 -3 27 -3 0 315 0 316 54 0 c46 0 54 3 59 20 3 11
11 19 19 18 10 -2 14 24 16 125 2 119 4 127 22 127 18 0 20 -8 21 -92 3 -162
2 -158 19 -158 9 0 100 -1 203 -2 l187 -3 0 168 0 167 40 0 40 0 0 -1185 c0
-810 3 -1185 10 -1185 7 0 7 -6 0 -19 -6 -12 -10 -131 -10 -315 0 -289 0 -296
20 -296 20 0 20 7 20 298 0 218 -3 301 -12 310 -7 7 -8 12 -2 12 13 0 12 -114
13 1193 l1 1147 25 0 c19 0 23 4 18 18 -6 15 -5 16 12 2 10 -8 16 -10 12 -3
-5 8 1 15 16 18 32 8 584 2 592 -7 4 -4 4 -12 0 -18 -6 -9 -10 -9 -16 1 -6 10
-9 11 -9 2 0 -26 -2 -28 -23 -40 -16 -10 -91 -13 -282 -12 l-260 2 -3 -1126
-2 -1125 40 -7 c25 -4 40 -12 40 -21 0 -8 9 -14 20 -14 19 0 20 -7 20 -171 l0
-170 -37 3 c-45 4 -56 28 -21 47 13 6 16 10 8 8 -13 -4 -15 11 -15 94 0 55 3
99 6 99 4 0 7 -39 8 -87 3 -120 11 -119 11 2 0 81 -3 100 -17 111 -17 13 -17
14 0 8 9 -3 17 -2 17 3 0 5 -18 10 -40 11 l-40 3 0 -296 0 -295 28 -1 c15 -1
32 -2 37 -4 6 -1 20 -3 33 -3 12 -1 22 -9 22 -17 0 -8 -3 -14 -7 -14 -21 3
-33 -2 -33 -16 0 -14 -12 -19 -32 -16 -5 0 -8 -58 -8 -130 0 -122 1 -131 20
-136 11 -3 20 -11 20 -18 0 -7 9 -15 20 -18 19 -5 20 -14 20 -151 l0 -146 120
0 120 0 0 -40 0 -40 -59 0 -60 0 -3 -129 c-2 -71 0 -127 5 -124 4 2 7 -14 7
-36 0 -37 -2 -41 -25 -41 l-25 0 0 165 0 165 -40 0 -40 0 -1 -137 c-1 -76 -1
-141 0 -145 0 -5 -8 -8 -19 -8 -13 0 -20 -7 -20 -20 0 -19 -7 -20 -165 -20
l-165 0 0 -124 0 -125 339 -3 c187 -2 343 -6 347 -10 4 -5 -3 -17 -16 -28
l-23 -20 24 -1 c21 -1 20 -2 -6 -9 -16 -4 -308 -8 -647 -9 l-618 -1 0 -130 0
-130 519 0 c285 0 533 -3 550 -6 27 -6 31 -10 31 -40 l0 -34 -245 0 -245 0 0
-125 0 -125 228 0 c268 0 332 -6 332 -29 0 -13 -2 -13 -9 -3 -6 11 -10 10 -16
-5 -5 -10 -8 -21 -7 -24 3 -14 -91 -18 -453 -19 -637 -2 -595 -3 -595 20 0 13
-7 20 -20 20 -19 0 -20 7 -20 145 l0 144 -357 1 c-196 0 -359 3 -362 6 -8 8
-8 7 -10 185 -1 160 -1 160 -23 157 -23 -3 -23 -4 -22 -175 l2 -173 -38 0 -37
0 4 151 c2 83 1 159 -2 169 -4 11 -20 20 -45 24 -36 6 -40 9 -40 35 0 26 4 30
40 36 l40 7 0 164 0 164 120 0 120 0 0 143 c0 97 -3 137 -10 127 -9 -13 -11
-13 -20 0 -8 13 -1 16 42 18 34 2 54 -1 59 -10 5 -7 9 -73 9 -145 l0 -133 140
0 140 0 0 145 c0 138 1 145 20 145 14 0 20 7 20 21 0 19 5 20 74 18 74 -2 74
-2 80 -32 3 -16 6 -90 6 -163 l0 -134 25 0 25 0 2 163 3 162 76 3 c70 3 77 1
82 -18 7 -26 27 -26 27 0 0 15 7 20 25 20 l25 0 0 130 0 130 -190 0 c-145 0
-190 3 -191 13 0 10 -2 10 -6 0 -10 -27 -23 -11 -23 27 0 33 3 40 20 40 19 0
20 7 20 145 0 122 2 145 15 145 8 0 15 9 15 20 0 20 7 20 350 20 l350 0 0 298
c0 289 -6 348 -30 312 -5 -8 -10 -85 -10 -170 0 -85 -5 -162 -10 -170 -7 -11
-35 -15 -127 -17 -138 -2 -156 1 -148 28 5 14 2 17 -8 13 -8 -3 -18 -1 -22 5
-3 6 1 11 9 11 9 0 16 5 16 10 0 6 39 8 105 6 l105 -4 0 134 0 134 -165 1
c-199 2 -190 1 -189 17 2 28 5 31 21 25 9 -4 14 -2 10 3 -16 27 14 32 193 34
225 3 210 4 210 -20 0 -13 7 -20 20 -20 19 0 20 10 17 982 l-2 982 -55 -3
c-30 -1 -58 -8 -63 -14 -7 -12 -8 -223 -1 -242 3 -6 22 -9 44 -7 36 4 40 2 41
-19 1 -61 -2 -233 -7 -431 -6 -174 -10 -218 -20 -218 -8 0 -14 -5 -14 -11 0
-5 5 -7 12 -3 6 4 8 3 4 -4 -3 -6 -15 -10 -26 -9 -19 1 -20 9 -20 144 l0 143
-150 0 c-143 0 -150 1 -150 20 0 12 -7 20 -16 20 -12 0 -15 -7 -12 -30 3 -21
1 -27 -6 -20 -5 5 -25 10 -43 10 l-33 0 0 -125 0 -125 115 0 115 0 0 -40 0
-40 -187 -1 c-104 0 -239 0 -301 1 -85 1 -113 -2 -117 -12 -2 -7 -5 -66 -7
-131 l-3 -117 130 -2 c72 0 137 -1 145 -2 9 -1 16 -13 18 -32 3 -26 -1 -33
-20 -38 -13 -3 -413 -6 -890 -6 l-868 0 0 40 0 40 650 0 650 0 0 131 0 130
-177 -1 c-507 -3 -644 0 -637 12 6 9 3 9 -9 -1 -15 -12 -17 -11 -18 5 -1 18
-2 18 -6 1 -4 -17 -20 -18 -246 -16 -264 3 -287 5 -287 25 0 8 -9 14 -20 14
-12 0 -20 7 -20 18 0 15 15 17 162 19 89 2 165 6 170 11 5 5 7 60 6 123 l-3
114 -220 6 c-121 3 -221 6 -222 7 -2 1 -3 15 -3 31 0 38 16 41 251 41 l189 1
0 109 c0 59 3 115 6 124 5 14 -13 16 -159 16 -115 0 -166 -3 -169 -11 -3 -9
-9 -9 -25 0 -12 6 -49 11 -82 11 l-61 0 0 -290 0 -290 40 0 c33 0 40 -3 40
-20 0 -13 7 -20 20 -20 20 0 20 -7 20 -355 0 -309 -2 -355 -15 -355 -13 0 -15
-23 -15 -145 l0 -145 -25 0 -25 0 0 480 0 480 -40 0 -40 0 0 -92 c0 -216 -13
-483 -24 -490 -7 -5 -4 -8 7 -8 14 0 17 -9 17 -46 0 -37 3 -45 15 -40 13 5 15
-13 15 -119 0 -104 -2 -125 -15 -125 -13 0 -15 -26 -15 -170 l0 -169 58 -3 57
-3 3 -37 3 -38 -63 0 -63 0 0 -290 0 -290 105 -1 c58 0 142 0 187 1 79 1 123
-10 123 -30 0 -6 -6 -10 -14 -10 -8 0 -22 -8 -31 -17 -10 -9 -32 -17 -51 -17
l-34 -1 -1 -115 c-1 -63 0 -164 1 -225 1 -60 -1 -217 -5 -347 l-8 -238 -28 0
c-32 0 -37 -11 -15 -29 11 -10 15 -9 18 5 3 16 4 16 18 -1 9 -11 10 -16 3 -11
-10 6 -13 -27 -13 -148 l0 -156 35 0 35 0 0 134 c0 131 -1 134 -21 129 -18 -5
-20 -2 -17 33 l3 39 58 3 57 3 0 -170 0 -171 90 0 90 0 0 131 0 130 31 -3 31
-3 -1 -126 -2 -127 46 -6 c42 -7 45 -9 45 -36 0 -27 -4 -30 -40 -36 l-40 -7 0
-123 0 -124 123 -2 c67 -1 139 -2 160 -3 32 0 37 -3 37 -24 0 -18 4 -22 20
-18 12 3 20 0 20 -8 0 -8 -8 -11 -20 -8 -11 3 -20 1 -20 -4 0 -6 -73 -11 -180
-12 -175 -2 -180 -1 -180 19 0 13 -7 20 -20 20 -13 0 -20 -7 -20 -20 0 -11 7
-20 15 -20 12 0 15 -23 17 -122 l3 -123 95 -3 c55 -2 103 2 115 8 15 8 29 8
49 1 15 -6 72 -11 127 -11 92 0 99 -1 99 -20 0 -11 4 -20 10 -20 5 0 7 7 4 15
-4 10 0 15 10 15 24 0 16 -33 -9 -42 -18 -5 -17 -6 5 -8 l25 -2 -25 -8 c-14
-4 -54 -8 -90 -9 l-65 -1 3 -117 c2 -65 5 -124 7 -131 6 -17 89 -12 91 6 1 6
2 63 3 125 2 75 5 105 11 92 5 -11 9 -60 9 -110 0 -49 0 -98 0 -107 1 -16 11
-18 75 -18 41 0 81 -2 88 -5 11 -4 13 -36 10 -165 l-4 -160 80 0 81 0 3 125 3
125 -35 1 c-19 1 -47 0 -62 -1 -26 -1 -28 1 -27 37 0 36 1 37 11 13 6 -14 10
-28 10 -32 -1 -5 2 -8 8 -8 5 0 10 16 10 35 l0 35 60 0 c53 0 60 -2 60 -20 0
-14 7 -20 21 -20 15 0 20 -6 19 -22 -1 -13 -2 -78 -1 -145 l1 -123 495 0 496
0 -3 123 -3 122 -445 2 c-245 2 -455 5 -467 8 -30 7 -29 18 2 50 l26 25 637 0
c350 0 632 4 625 8 -8 5 -13 47 -15 127 l-3 120 -302 3 -303 2 0 40 0 40 83 0
c423 2 930 -2 942 -6 9 -4 15 -19 15 -40 l0 -34 -187 0 -188 0 0 -131 0 -130
28 -6 c15 -3 27 -12 27 -20 0 -10 9 -13 28 -11 15 2 26 8 24 16 -1 6 3 12 9
12 6 0 9 -7 5 -15 -4 -12 4 -15 45 -15 31 0 48 4 44 10 -14 22 93 41 123 21 8
-5 12 -21 10 -37 -3 -28 -5 -29 -62 -32 -46 -2 -62 1 -68 12 -10 17 -34 21
-40 7 -1 -4 -66 -11 -143 -15 -77 -4 -140 -8 -140 -9 0 -1 1 -57 3 -124 l3
-123 98 0 c142 0 141 2 141 -183 0 -171 -21 -154 183 -149 l137 4 0 124 0 124
25 0 25 0 0 -124 c0 -101 3 -125 15 -130 17 -6 21 -36 5 -36 -5 0 -10 -6 -10
-14 0 -24 -34 -28 -203 -26 -89 1 -168 2 -174 1 -10 -1 -13 -34 -13 -131 l0
-130 -31 0 -30 0 3 130 3 130 -592 1 c-326 1 -597 2 -602 3 -17 2 -25 16 -9
16 8 0 15 6 15 14 0 11 -4 12 -19 3 -16 -11 -18 -27 -18 -154 l0 -143 145 -1
c80 -1 151 -2 158 -3 6 0 13 -18 15 -39 2 -20 0 -37 -5 -36 -4 1 -32 1 -60 0
l-53 -1 0 -125 0 -125 418 -1 c229 0 437 -4 462 -8 25 -5 37 -9 27 -10 -21 -1
-18 -26 3 -26 7 0 15 -5 17 -11 7 -21 -88 -24 -728 -24 l-639 0 0 165 0 165
-281 0 c-187 0 -278 3 -274 10 4 6 11 8 16 5 5 -4 9 1 9 9 0 9 9 16 20 16 13
0 20 7 20 20 0 13 7 20 20 20 19 0 20 7 20 130 0 123 -1 130 -20 130 -19 0
-20 7 -20 165 l0 165 -100 0 c-83 0 -100 3 -100 15 0 9 -9 19 -21 23 -20 8
-21 14 -20 150 2 137 1 142 -19 142 -20 0 -20 -2 -20 -614 0 -337 -3 -628 -6
-645 -5 -21 -12 -31 -25 -31 -11 0 -19 -4 -19 -10 0 -5 -5 -10 -11 -10 -5 0
-7 5 -4 10 3 6 1 10 -4 10 -7 0 -11 50 -11 145 0 137 -1 145 -19 145 -19 0
-20 -14 -20 -582 0 -321 -4 -676 -7 -790 l-7 -208 66 0 c57 0 67 -3 68 -17 0
-11 3 -13 6 -5 2 6 12 12 20 12 13 0 11 -4 -5 -19 -27 -23 -28 -35 -2 -28 11
3 20 2 20 -3 0 -12 -55 -20 -131 -20 -62 0 -69 2 -69 20 0 13 -7 20 -20 20
-13 0 -20 7 -20 20 0 11 3 20 8 20 4 0 5 55 2 122 -5 118 -6 123 -27 126 -23
3 -23 3 -23 -130 0 -73 -3 -194 -7 -269 -7 -168 0 -229 28 -229 18 0 19 -8 19
-145 l0 -145 160 0 c153 0 160 -1 160 -20 0 -13 7 -20 20 -20 19 0 20 -7 20
-145 l0 -145 258 0 c141 0 267 -3 280 -6 17 -5 22 -14 22 -40 0 -27 4 -34 20
-34 19 0 20 -7 20 -130 l0 -130 405 0 c398 0 405 0 405 -20 0 -13 7 -20 20
-20 19 0 20 -7 20 -145 l0 -145 70 0 70 0 0 125 0 126 28 -4 27 -4 3 -121 3
-122 874 0 875 0 0 135 c0 123 -1 134 -17 128 -13 -5 -12 -1 5 17 12 13 22 27
22 32 0 4 7 8 15 8 8 0 15 -7 15 -16 0 -11 6 -15 20 -11 19 5 20 0 20 -144 0
-142 1 -149 20 -149 19 0 20 7 20 144 0 79 3 151 6 160 4 9 18 16 34 16 37 0
40 -14 40 -182 l0 -136 134 -4 c74 -1 138 -6 142 -11 4 -4 -2 -14 -14 -23 -12
-8 -22 -22 -22 -30 0 -12 -189 -14 -1467 -12 -1173 2 -1467 6 -1471 16 -2 7
-10 18 -17 26 -8 7 -11 16 -8 20 4 3 1 6 -5 6 -7 0 -11 3 -11 8 1 4 1 62 0
130 l-1 122 -405 0 c-357 0 -409 2 -430 16 -25 16 -25 18 -25 170 l0 154 -221
0 c-133 0 -228 4 -240 10 -18 10 -19 23 -19 165 l0 155 -156 0 c-155 0 -157 0
-180 26 l-24 25 0 308 0 307 23 20 c13 11 31 23 40 27 9 3 17 13 17 22 0 12
15 15 80 15 l80 0 0 125 c0 118 1 125 20 125 13 0 20 7 20 20 0 13 7 20 20 20
13 0 20 7 20 20 0 18 7 20 80 20 l80 0 0 640 0 640 25 10 c14 5 25 14 25 19 0
6 16 13 35 17 l35 6 0 294 0 294 -39 0 c-30 0 -40 4 -44 20 -3 11 -11 19 -19
18 -10 -2 -14 31 -16 165 -2 162 -2 167 18 167 13 0 20 7 20 20 0 17 7 20 40
20 l40 0 0 130 0 130 -100 0 c-93 0 -100 1 -100 20 0 13 -7 20 -20 20 -19 0
-20 7 -20 145 l0 144 -102 3 c-84 2 -103 6 -103 18 0 8 -7 15 -15 15 -13 0
-15 24 -18 148 l-3 147 -103 0 c-95 0 -104 2 -109 20 -3 11 -12 20 -21 20 -14
0 -16 19 -16 150 l0 150 -40 0 c-33 0 -40 3 -40 20 0 13 -7 20 -20 20 -20 0
-20 7 -20 310 l0 310 -40 0 c-33 0 -40 3 -40 20 0 13 -7 20 -20 20 -19 0 -20
7 -20 150 l0 150 -120 0 -120 0 0 165 0 165 -54 0 c-52 0 -54 1 -60 31 -3 17
-6 92 -6 165 l0 134 -60 0 -60 0 0 170 0 170 -105 0 c-98 0 -105 1 -105 20 0
13 -7 20 -20 20 -20 0 -20 7 -20 310 l0 309 -57 3 -58 3 -3 350 c-1 192 1 357
4 365 4 8 6 18 6 23 -1 4 41 7 93 7 l95 0 0 -165 0 -165 26 0 26 0 -2 143 c-1
78 -1 152 -1 165 l1 23 158 -3 c111 -2 157 -6 157 -15 0 -6 3 -15 8 -19 4 -4
7 -16 7 -26 0 -10 5 -18 10 -18 6 0 10 -48 10 -125 l0 -125 25 0 25 0 0 145
c0 126 2 145 16 145 9 0 18 9 21 20 3 11 14 20 24 20 19 0 19 31 19 1165 0
803 3 1165 10 1165 6 0 10 6 9 13 -1 6 -1 62 0 124 1 97 3 112 19 116 27 7 28
7 10 -7z m1882 -296 c0 -5 -2 -10 -4 -10 -3 0 -8 5 -11 10 -3 6 -1 10 4 10 6
0 11 -4 11 -10z m-1343 -262 c-3 -8 -6 -5 -6 6 -1 11 2 17 5 13 3 -3 4 -12 1
-19z m1027 -24 c9 -3 16 -12 16 -20 0 -8 5 -14 10 -14 6 0 9 3 8 8 -2 4 1 8 6
10 6 1 11 -8 13 -21 3 -21 -2 -25 -34 -31 -21 -3 -62 -6 -90 -6 l-53 0 0 40 0
40 54 0 c30 0 61 -3 70 -6z m234 -3 c5 -3 11 -14 15 -23 9 -25 25 -22 30 5 3
16 5 13 6 -10 1 -24 -3 -31 -13 -27 -8 3 -17 1 -21 -5 -8 -13 -154 -15 -174
-2 -21 13 -6 59 22 64 31 6 124 5 135 -2z m697 1 c37 -2 40 -5 42 -31 2 -26
-2 -29 -35 -35 -47 -7 -120 -7 -149 0 -17 5 -23 14 -23 34 0 32 15 38 85 35
22 -1 58 -3 80 -3z m-2245 -19 c0 -7 5 -13 10 -13 6 0 10 -54 10 -142 l0 -141
-32 -29 c-17 -15 -35 -28 -40 -28 -4 0 -8 -7 -8 -15 0 -8 -9 -15 -20 -15 -19
0 -20 -7 -20 -150 l0 -150 -42 0 -43 0 5 177 c3 98 9 184 13 191 5 7 29 12 58
12 l49 0 0 140 c0 85 4 147 11 158 13 20 49 24 49 5z m1060 -15 c0 -25 -3 -28
-35 -28 -32 0 -35 2 -35 30 0 27 3 29 35 28 31 -1 35 -4 35 -30z m-720 -340
c0 -9 4 -8 10 2 9 13 10 13 10 0 0 -13 1 -13 10 0 8 12 10 11 10 -7 0 -20 -5
-23 -35 -23 -28 0 -35 4 -35 20 0 11 7 20 15 20 8 0 15 -6 15 -12z m940 -2 c0
-12 -10 -14 -38 -7 -2 1 0 6 3 11 9 15 35 12 35 -4z m-1020 -36 c0 -5 -4 -10
-10 -10 -6 0 -9 -35 -8 -87 l2 -88 5 80 c6 74 22 128 35 114 3 -3 7 -72 9
-153 l2 -147 -35 3 c-34 3 -35 4 -32 43 2 22 9 43 15 47 9 6 9 8 0 8 -10 0
-13 27 -13 100 0 82 3 100 15 100 8 0 15 -4 15 -10z m3569 -256 c26 -5 31 -11
31 -34 0 -23 -5 -29 -32 -34 -43 -7 -684 -7 -714 0 -19 5 -24 13 -24 40 l0 34
354 0 c194 0 368 -3 385 -6z m-950 -171 c-2 -60 -3 -69 -8 -38 -6 39 -3 115 5
115 2 0 3 -35 3 -77z m289 -525 l3 -38 -40 0 -41 0 0 41 0 40 38 -3 c35 -3 37
-5 40 -40z m160 -153 c3 -132 0 -150 -30 -152 -44 -4 -49 11 -47 144 l2 124
36 -3 36 -3 3 -110z m-8 -172 c0 -5 -14 -9 -30 -10 -17 -1 -30 2 -30 7 0 6 14
10 30 10 17 0 30 -3 30 -7z m-150 -324 c-1 -299 -2 -309 -21 -309 -21 0 -21
-5 -19 148 1 86 -1 102 -14 102 -9 0 -16 9 -16 20 0 11 7 20 15 20 13 0 15 25
15 163 0 90 3 166 6 170 3 3 12 3 20 0 12 -4 14 -55 14 -314z m-2823 74 c-2
-27 -3 -5 -3 47 0 52 1 74 3 48 2 -27 2 -69 0 -95z m-278 -63 c10 -5 19 -20
19 -34 0 -19 -7 -26 -29 -31 -39 -9 -46 -2 -41 39 4 38 18 44 51 26z m2531
-360 c0 -29 -4 -40 -15 -40 -10 0 -15 10 -15 34 0 29 6 38 28 45 1 1 2 -17 2
-39z m47 -15 c0 -8 -4 -15 -7 -15 -4 0 -13 7 -20 15 -10 12 -9 15 7 15 11 0
20 -7 20 -15z m760 -1 c-3 -3 -12 -4 -19 -1 -8 3 -5 6 6 6 11 1 17 -2 13 -5z
m33 -157 l0 -133 -30 0 -30 0 0 133 0 133 30 0 30 0 0 -133z m-30 -158 c0 -5
-7 -9 -15 -9 -15 0 -20 12 -9 23 8 8 24 -1 24 -14z m-2990 -29 c0 -11 -4 -20
-9 -20 -13 0 -32 26 -24 33 13 14 33 6 33 -13z m2378 -162 l-3 -183 -27 -3
-28 -3 0 180 c0 186 1 188 43 190 16 1 17 -12 15 -181z m-2403 -118 c12 -5 14
-9 6 -9 -12 -1 -11 -4 2 -14 16 -11 17 -30 15 -172 l-3 -160 -31 -3 c-28 -3
-32 0 -38 29 -3 17 -6 101 -6 185 0 167 0 167 55 144z m275 -15 c0 -8 7 -15
15 -15 8 0 15 -7 15 -15 0 -12 -13 -15 -55 -15 -42 0 -55 3 -55 15 0 8 9 15
20 15 11 0 20 7 20 15 0 8 9 15 20 15 11 0 20 -7 20 -15z m360 -15 c0 -23 -4
-30 -20 -30 -16 0 -20 7 -20 30 0 23 4 30 20 30 16 0 20 -7 20 -30z m1130
-330 l0 -40 -109 0 c-149 0 -171 5 -171 41 0 34 7 36 163 38 l117 1 0 -40z
m-1660 -61 c0 -5 -4 -7 -10 -4 -6 4 -10 -33 -10 -104 0 -78 4 -111 13 -114 7
-3 5 -6 -5 -6 -16 -1 -18 11 -18 119 0 100 3 120 15 120 8 0 15 -5 15 -11z
m1423 -245 c21 -4 37 -12 37 -20 0 -7 8 -11 19 -9 14 2 19 -2 18 -13 -1 -18
-35 -25 -130 -26 -49 0 -67 12 -67 46 0 23 54 33 123 22z m145 -199 c-2 -69 0
-125 4 -125 3 0 4 -9 1 -20 -3 -11 -12 -20 -19 -20 -8 0 -14 -9 -14 -20 0 -17
-7 -20 -40 -20 l-41 0 1 -142 c1 -79 1 -153 0 -165 0 -23 -2 -23 -139 -23
-151 0 -153 1 -143 58 4 21 9 22 103 22 l99 0 0 129 c0 137 4 161 26 161 8 0
14 9 14 20 0 17 7 20 50 20 35 0 50 4 49 13 -1 6 -1 54 0 105 1 65 4 91 12 86
7 -4 7 1 -1 16 -8 15 -8 20 -1 16 6 -4 11 -2 11 3 0 6 7 11 16 11 13 0 15 -17
12 -125z m-1528 -165 c0 -43 0 -43 -24 -34 -16 6 -22 54 -9 67 19 19 33 5 33
-33z m2828 -4 c3 -35 1 -38 -17 -33 -20 5 -21 2 -21 -127 l0 -132 40 4 40 4 0
-41 0 -41 -60 0 c-53 0 -60 2 -60 20 0 13 -7 20 -19 20 -18 0 -19 9 -20 165
-2 159 -1 165 19 165 14 0 20 7 20 21 0 17 5 20 38 17 35 -3 37 -5 40 -42z
m42 19 c0 -8 -7 -15 -15 -15 -13 0 -14 3 -3 15 16 18 18 18 18 0z m37 -371
c-9 -9 -28 6 -21 18 4 6 10 6 17 -1 6 -6 8 -13 4 -17z m-2114 -639 c-1 -15 -3
-29 -5 -30 -2 -1 -24 -5 -49 -8 -45 -5 -47 -5 -51 22 -7 46 -1 51 55 47 50 -3
52 -4 50 -31z m2085 -2 c-3 -37 -4 -38 -43 -38 -34 0 -40 3 -43 23 -6 41 5 52
48 52 l41 0 -3 -37z m-2028 7 c0 -5 -10 -10 -22 -9 -22 0 -22 1 -3 9 11 5 21
9 23 9 1 1 2 -3 2 -9z m-682 -342 c3 -36 2 -38 -26 -38 -16 0 -44 3 -61 6 -28
6 -31 10 -31 41 l0 35 58 -4 57 -3 3 -37z m438 -309 c5 -8 9 -8 14 1 12 20 30
2 30 -31 0 -19 -5 -29 -15 -29 -9 0 -15 9 -15 23 0 17 -2 19 -9 7 -6 -8 -7
-18 -5 -22 3 -4 -3 -8 -13 -8 -13 0 -19 8 -21 26 -3 40 17 60 34 33z m214 -29
l0 -40 -40 0 -40 0 0 40 0 40 40 0 40 0 0 -40z m-283 8 c-3 -8 -6 -5 -6 6 -1
11 2 17 5 13 3 -3 4 -12 1 -19z m974 -172 c2 -154 -1 -169 -26 -159 -12 4 -15
30 -15 138 0 128 1 133 20 128 18 -5 20 -14 21 -107z m-771 -166 c0 -26 -3
-30 -29 -30 -45 0 -61 10 -61 36 0 22 4 24 45 24 43 0 45 -1 45 -30z m241 18
c0 -7 2 -21 4 -30 2 -13 -3 -18 -21 -18 -20 0 -24 5 -24 30 0 23 4 30 20 30
11 0 20 -6 21 -12z m-51 -348 l0 -40 -60 0 -60 0 0 40 0 40 60 0 60 0 0 -40z
m1787 -1325 c6 -19 -14 -36 -50 -42 -36 -5 -37 -5 -37 26 0 32 1 32 42 29 23
-2 43 -7 45 -13z m-2147 -317 c0 -9 3 -8 10 2 5 8 13 11 17 6 4 -4 9 -239 11
-522 3 -511 3 -514 -18 -514 -13 0 -20 -7 -20 -20 0 -17 -7 -20 -46 -20 l-45
0 3 -125 3 -125 -32 0 -33 0 0 123 c0 67 -3 132 -6 145 -5 18 -2 22 15 22 14
0 21 6 21 20 0 17 7 20 40 20 l40 0 0 469 c0 258 3 483 6 500 6 30 34 45 34
19z m2379 -323 c7 -3 11 -11 8 -18 -3 -8 5 -19 16 -27 21 -13 21 -13 2 -21
-22 -9 -1207 -11 -1242 -2 -17 4 -23 12 -23 33 0 38 8 39 349 40 157 0 286 1
287 3 4 4 589 -4 603 -8z m-1239 -705 c0 -25 -4 -30 -25 -30 -21 0 -25 5 -25
30 0 25 4 30 25 30 21 0 25 -5 25 -30z m2073 -969 c40 -16 37 -56 -4 -65 -40
-8 -93 -8 -141 0 -33 6 -38 10 -38 35 0 25 4 28 38 31 100 8 121 8 145 -1z
m-502 -28 c0 -16 3 -22 6 -15 2 6 11 12 20 12 31 0 5 -25 -30 -28 -33 -3 -37
-1 -37 21 0 45 40 54 41 10z m609 -333 c0 -25 -4 -30 -25 -30 -19 0 -25 5 -25
23 0 18 -2 19 -10 7 -8 -13 -10 -13 -10 2 0 16 16 24 53 27 13 1 17 -7 17 -29z
m-150 -309 c14 -4 24 -13 23 -19 -2 -7 9 -13 25 -13 27 -2 27 -2 2 -7 l-25 -5
25 -7 c35 -10 -159 -24 -218 -16 -25 3 -47 8 -50 11 -8 8 8 56 18 50 5 -3 11
-1 15 5 7 11 147 12 185 1z m-454 -17 c-4 -12 -2 -15 9 -11 8 4 17 2 20 -3 4
-6 -2 -10 -12 -10 -15 0 -16 -2 -3 -10 11 -7 0 -10 -37 -10 -59 0 -71 10 -46
40 22 25 78 29 69 4z m-736 -19 c0 -18 -5 -25 -19 -25 -10 0 -21 7 -25 15 -4
10 1 15 14 15 11 0 20 5 20 10 0 6 2 10 5 10 3 0 5 -11 5 -25z"/>
<path d="M7680 15835 l0 -125 79 0 79 0 4 63 c1 34 2 90 0 125 l-3 62 -79 0
-80 0 0 -125z"/>
<path d="M7920 15845 c0 -63 -1 -118 -2 -122 -2 -5 7 -9 20 -11 22 -3 22 -2
22 122 0 119 -1 126 -20 126 -19 0 -20 -7 -20 -115z"/>
<path d="M8040 15835 c0 -118 1 -125 20 -125 19 0 20 7 20 125 0 118 -1 125
-20 125 -19 0 -20 -7 -20 -125z"/>
<path d="M8160 15835 l0 -125 100 0 100 0 0 125 0 125 -100 0 -100 0 0 -125z"/>
<path d="M8436 15952 c-8 -7 -8 -206 0 -225 4 -13 83 -15 560 -16 l554 -2 0
126 0 126 -554 -2 c-305 0 -557 -3 -560 -7z"/>
<path d="M11270 15680 c0 -5 5 -10 10 -10 6 0 10 5 10 10 0 6 -4 10 -10 10 -5
0 -10 -4 -10 -10z"/>
<path d="M7430 15500 l0 -130 25 0 25 0 0 130 0 130 -25 0 -25 0 0 -130z"/>
<path d="M7310 15165 c0 -118 1 -125 20 -125 19 0 20 7 20 125 0 118 -1 125
-20 125 -19 0 -20 -7 -20 -125z"/>
<path d="M7015 14400 c-3 -5 -2 -10 4 -10 5 0 13 5 16 10 3 6 2 10 -4 10 -5 0
-13 -4 -16 -10z"/>
<path d="M9402 13505 c-1 -75 3 -125 8 -125 6 0 10 51 10 125 0 69 -4 125 -8
125 -5 0 -9 -56 -10 -125z"/>
<path d="M9374 13525 c0 -49 1 -71 3 -48 2 23 2 64 0 90 -2 26 -3 8 -3 -42z"/>
<path d="M7920 13165 c0 -118 1 -125 20 -125 19 0 20 7 20 125 0 118 -1 125
-20 125 -19 0 -20 -7 -20 -125z"/>
<path d="M8040 13165 l0 -125 100 0 100 0 0 125 0 125 -100 0 -100 0 0 -125z"/>
<path d="M8320 13165 c0 -118 1 -125 20 -125 19 0 20 7 20 125 0 118 -1 125
-20 125 -19 0 -20 -7 -20 -125z"/>
<path d="M7470 12665 l0 -295 65 0 64 0 3 153 c3 134 5 152 19 149 11 -1 16 4
15 15 -1 15 9 19 57 21 l57 3 0 124 0 125 -140 0 -140 0 0 -295z"/>
<path d="M7830 12810 c0 -129 -2 -149 -15 -144 -8 4 -15 1 -15 -5 0 -6 6 -11
13 -11 8 0 7 -4 -3 -10 -8 -5 -34 -10 -57 -10 l-43 0 0 -130 0 -130 65 0 65 0
0 295 c0 162 -2 295 -5 295 -3 0 -5 -67 -5 -150z"/>
<path d="M9620 12341 c0 -294 0 -301 20 -301 19 0 20 7 20 150 0 90 4 150 10
150 5 0 7 7 4 15 -5 11 1 15 24 15 38 0 42 -19 42 -196 l0 -134 83 0 82 0 -1
121 c-1 108 1 122 17 126 12 3 20 19 25 46 5 32 8 37 14 23 13 -38 20 11 20
141 0 110 -2 124 -15 113 -12 -10 -15 -9 -15 4 0 14 -8 17 -42 14 l-43 -3 -5
-145 c-5 -141 -6 -145 -27 -148 -18 -3 -23 2 -24 20 0 21 -1 21 -8 4 -7 -18
-8 -18 -14 5 -4 13 -7 79 -7 147 l0 122 -42 0 c-24 0 -60 3 -80 6 l-38 7 0
-302z m257 -28 c-3 -10 -5 -2 -5 17 0 19 2 27 5 18 2 -10 2 -26 0 -35z"/>
<path d="M7310 12500 l0 -130 40 0 40 0 0 130 0 130 -40 0 -40 0 0 -130z"/>
<path d="M8040 12500 c0 -131 0 -131 23 -128 21 3 22 6 22 128 0 122 -1 125
-22 128 -23 3 -23 3 -23 -128z"/>
<path d="M8159 12623 c-4 -23 -5 -230 -1 -240 2 -7 13 -13 23 -13 18 0 19 9
19 130 0 123 -1 130 -20 130 -11 0 -21 -3 -21 -7z"/>
<path d="M8286 12622 c-2 -4 -5 -60 -5 -124 -2 -113 -1 -118 18 -118 20 0 21
6 21 119 0 95 -3 120 -15 124 -8 4 -16 3 -19 -1z"/>
<path d="M8400 12500 l0 -130 100 0 100 0 0 130 0 130 -100 0 -100 0 0 -130z"/>
<path d="M8680 12500 c0 -123 1 -130 20 -130 19 0 20 7 20 130 0 123 -1 130
-20 130 -19 0 -20 -7 -20 -130z"/>
<path d="M8030 12165 l0 -125 85 0 85 0 0 125 0 125 -85 0 -85 0 0 -125z"/>
<path d="M8280 12165 c0 -118 1 -125 20 -125 19 0 20 7 20 125 0 118 -1 125
-20 125 -19 0 -20 -7 -20 -125z"/>
<path d="M8400 12165 l0 -126 102 3 102 3 0 123 1 122 -102 0 -103 0 0 -125z"/>
<path d="M9985 12281 c-3 -6 3 -14 12 -20 17 -10 17 -10 1 -11 -16 0 -18 -12
-18 -106 0 -95 2 -105 18 -102 14 3 17 17 20 93 4 124 -9 184 -33 146z m22
-133 c-3 -7 -5 -2 -5 12 0 14 2 19 5 13 2 -7 2 -19 0 -25z m3 -78 c0 -5 -2
-10 -4 -10 -3 0 -8 5 -11 10 -3 6 -1 10 4 10 6 0 11 -4 11 -10z"/>
<path d="M6340 11665 c0 -288 0 -295 20 -295 20 0 22 4 22 40 0 508 -1 550
-22 550 -20 0 -20 -7 -20 -295z"/>
<path d="M6597 11941 c-2 -11 -5 -215 -6 -455 -1 -334 1 -440 11 -455 10 -16
10 -27 0 -54 -7 -19 -12 -83 -12 -146 0 -91 3 -113 15 -118 9 -3 18 -3 21 -1
2 3 7 130 10 284 3 153 9 281 14 284 4 3 8 82 9 176 2 147 0 172 -13 177 -14
5 -16 31 -16 167 0 130 -3 160 -14 160 -7 0 -16 -9 -19 -19z"/>
<path d="M6744 11830 c0 -74 1 -105 3 -67 2 37 2 97 0 135 -2 37 -3 6 -3 -68z"/>
<path d="M7079 11858 c-2 -144 -1 -148 49 -148 22 0 22 2 22 125 l0 125 -35 0
-35 0 -1 -102z"/>
<path d="M8000 11836 l0 -126 40 0 c49 0 52 8 48 145 l-3 100 -42 3 -43 3 0
-125z"/>
<path d="M8156 11944 c-8 -20 -8 -207 0 -227 3 -9 13 -13 25 -10 17 5 19 15
19 129 0 115 -1 124 -19 124 -10 0 -22 -7 -25 -16z"/>
<path d="M8280 11835 c0 -118 1 -125 20 -125 19 0 20 7 20 125 0 118 -1 125
-20 125 -19 0 -20 -7 -20 -125z"/>
<path d="M8400 11835 l0 -125 40 0 40 0 0 121 c0 71 -4 118 -9 114 -5 -3 -12
-1 -16 5 -3 5 -17 10 -31 10 l-24 0 0 -125z"/>
<path d="M8520 11836 l0 -124 25 -4 25 -5 0 128 0 129 -25 0 -25 0 0 -124z"/>
<path d="M8678 11849 c-2 -60 0 -118 4 -127 4 -9 7 40 7 111 1 70 -1 127 -3
127 -3 0 -6 -50 -8 -111z"/>
<path d="M8800 11835 l0 -125 84 0 85 0 3 125 3 125 -87 0 -88 0 0 -125z"/>
<path d="M9370 11834 l0 -124 88 0 87 0 -3 125 -3 124 -85 0 -84 0 0 -125z"/>
<path d="M6744 11505 c0 -77 2 -107 3 -67 2 40 2 103 0 140 -2 37 -3 4 -3 -73z"/>
<path d="M6437 11624 c-4 -4 -7 -72 -7 -151 0 -120 2 -143 15 -143 13 0 15
-41 15 -310 l0 -310 24 0 24 0 -1 458 -2 457 -30 3 c-17 2 -34 0 -38 -4z"/>
<path d="M6830 11500 c0 -123 1 -130 20 -130 19 0 20 7 20 130 0 123 -1 130
-20 130 -19 0 -20 -7 -20 -130z"/>
<path d="M6980 11613 c0 -13 -3 -14 -8 -5 -5 7 -9 -44 -9 -113 0 -68 3 -122 7
-120 15 9 20 -41 20 -186 l0 -147 34 -6 c19 -4 37 -14 40 -22 3 -9 6 -80 6
-159 0 -113 3 -144 14 -148 8 -3 17 -3 20 0 3 4 6 136 6 295 0 281 0 288 -20
288 -11 0 -20 6 -20 14 0 8 -9 18 -21 21 -14 5 -19 13 -16 26 4 14 0 19 -14
19 -18 0 -19 9 -19 124 0 73 -4 127 -10 131 -5 3 -10 -2 -10 -12z"/>
<path d="M7070 11496 c0 -129 1 -134 20 -129 19 5 20 14 20 134 0 122 -1 129
-20 129 -19 0 -20 -7 -20 -134z"/>
<path d="M7228 11480 c3 -141 4 -150 23 -150 18 0 19 8 19 150 0 149 0 150
-22 150 -23 0 -23 0 -20 -150z"/>
<path d="M9130 11501 l0 -131 43 0 42 0 -3 122 c-2 68 -5 124 -7 126 -1 2 -19
6 -39 9 l-36 6 0 -132z"/>
<path d="M7207 11293 c-16 -4 -17 -27 -16 -311 0 -285 -4 -350 -23 -351 -5 -1
-19 -1 -33 -1 l-25 0 0 -129 0 -129 48 -4 c26 -3 53 -3 60 0 9 3 12 106 12
468 0 255 -1 463 -2 463 -2 -1 -11 -3 -21 -6z"/>
<path d="M6698 11155 c2 -76 7 -135 13 -135 5 0 9 -5 9 -12 0 -6 -3 -8 -7 -5
-3 4 -15 0 -25 -10 -16 -14 -18 -34 -18 -170 0 -146 1 -153 20 -153 13 0 20 7
20 20 0 13 7 20 20 20 19 0 20 7 20 103 0 56 3 186 7 290 l6 187 -34 0 -34 0
3 -135z"/>
<path d="M6864 11000 c0 -162 2 -229 3 -147 2 81 2 213 0 295 -1 81 -3 14 -3
-148z"/>
<path d="M7350 10814 c0 -133 1 -145 18 -142 15 3 17 19 20 146 2 137 2 142
-18 142 -19 0 -20 -6 -20 -146z"/>
<path d="M7438 10848 c5 -113 9 -125 10 -30 1 50 -1 92 -5 92 -5 0 -7 -28 -5
-62z"/>
<path d="M6760 10650 c-8 -11 -22 -20 -32 -20 -16 0 -18 -12 -18 -130 l0 -130
60 0 60 0 0 -166 0 -166 48 6 c26 4 53 3 59 -2 9 -5 13 -55 15 -167 l3 -160
78 -3 77 -3 0 125 c0 116 -1 125 -20 131 -28 9 -29 65 -1 65 11 0 26 3 34 6
10 3 17 -2 20 -13 3 -10 5 46 6 125 l1 142 -107 -1 c-138 -2 -133 -3 -133 21
0 13 -7 20 -20 20 -19 0 -20 7 -20 149 0 85 -4 152 -10 156 -5 3 -7 12 -3 20
9 25 -79 20 -97 -5z"/>
<path d="M6950 10500 l0 -130 40 0 40 0 0 130 0 130 -40 0 -40 0 0 -130z"/>
<path d="M7230 10188 l0 -147 58 -3 57 -3 3 -162 c1 -90 6 -163 10 -163 4 0 8
125 9 277 2 180 6 279 13 281 19 7 10 22 -13 22 -18 0 -23 5 -23 21 1 19 -5
21 -57 22 l-57 2 0 -147z"/>
<path d="M7190 9836 l0 -124 35 -6 c20 -4 33 -11 30 -16 -3 -5 -1 -11 5 -15 7
-4 10 43 10 139 l0 146 -40 0 -40 0 0 -124z"/>
<path d="M9490 9835 l0 -125 25 0 25 0 0 125 0 125 -25 0 -25 0 0 -125z"/>
<path d="M9620 9835 l0 -125 95 0 95 0 0 125 0 125 -95 0 -95 0 0 -125z"/>
<path d="M9827 9953 c-6 -6 -10 -232 -4 -233 1 -1 19 -3 40 -6 l37 -6 0 126 0
126 -33 0 c-19 0 -37 -3 -40 -7z"/>
<path d="M10020 9835 l0 -125 60 0 60 0 0 125 0 125 -60 0 -60 0 0 -125z"/>
<path d="M10220 9835 l0 -125 40 0 40 0 0 125 0 125 -40 0 -40 0 0 -125z"/>
<path d="M7588 9536 c0 -55 -2 -110 -3 -121 -1 -11 -3 -26 -4 -33 -1 -9 -12
-12 -33 -10 l-33 3 0 127 0 128 -102 0 -103 0 0 -130 c0 -123 1 -130 20 -130
10 0 24 -9 30 -19 5 -11 22 -21 37 -23 l28 -3 5 -310 5 -309 97 -1 c89 0 97 2
102 20 3 11 4 85 2 165 -3 80 -5 204 -5 277 -1 126 -2 131 -21 126 -17 -5 -20
0 -20 30 0 32 3 35 37 42 26 5 33 9 23 15 -11 7 -14 37 -15 129 0 116 -1 120
-22 124 -23 4 -23 2 -25 -97z"/>
<path d="M7190 9500 c0 -123 1 -130 20 -130 19 0 20 7 20 130 0 123 -1 130
-20 130 -19 0 -20 -7 -20 -130z"/>
<path d="M9860 9501 c0 -102 3 -130 14 -134 8 -3 16 -18 19 -34 2 -15 5 45 6
135 1 156 0 162 -19 162 -19 0 -20 -7 -20 -129z"/>
<path d="M9980 9494 l0 -136 31 6 c17 3 62 6 100 6 l69 0 0 130 0 130 -100 0
-100 0 0 -136z"/>
<path d="M10380 9330 l0 -40 -60 0 c-72 0 -72 0 -68 -145 l3 -100 63 -3 62 -3
0 126 c0 118 1 125 20 125 17 0 20 7 20 40 0 33 -3 40 -20 40 -17 0 -20 -7
-20 -40z"/>
<path d="M9990 9340 c0 -5 7 -10 15 -10 8 0 15 5 15 10 0 6 -7 10 -15 10 -8 0
-15 -4 -15 -10z"/>
<path d="M9887 9294 c-9 -9 -9 -216 -1 -238 3 -9 17 -16 30 -16 l24 0 0 125
c0 69 -4 125 -9 125 -5 0 -16 2 -23 5 -8 3 -17 2 -21 -1z"/>
<path d="M7310 9000 c0 -283 0 -290 20 -290 20 0 20 7 20 290 0 283 0 290 -20
290 -20 0 -20 -7 -20 -290z"/>
<path d="M9370 9167 c0 -83 4 -126 10 -122 13 8 13 215 0 235 -7 10 -10 -27
-10 -113z"/>
<path d="M9620 9165 c0 -118 1 -125 20 -125 19 0 20 7 20 125 0 118 -1 125
-20 125 -19 0 -20 -7 -20 -125z"/>
<path d="M9740 9165 c0 -118 1 -125 20 -125 19 0 20 7 20 125 0 118 -1 125
-20 125 -19 0 -20 -7 -20 -125z"/>
<path d="M8770 8837 c0 -68 3 -126 6 -130 3 -3 12 -3 20 0 11 4 14 32 14 129
0 117 -1 124 -20 124 -19 0 -20 -7 -20 -123z"/>
<path d="M8891 8664 l0 -295 160 2 159 2 0 128 0 129 -80 0 -80 0 0 165 0 165
-79 0 -80 0 0 -296z"/>
<path d="M9136 8951 c-4 -5 -6 -59 -5 -120 l1 -110 35 -7 c24 -4 38 -3 43 6 6
10 7 197 1 233 -2 10 -69 9 -75 -2z"/>
<path d="M9250 8835 l0 -121 100 -3 100 -2 0 126 0 126 -100 -2 -100 -3 0
-121z"/>
<path d="M9530 8835 l0 -126 140 2 140 1 0 124 0 124 -140 0 -140 0 0 -125z"/>
<path d="M9850 8835 l0 -125 90 0 90 0 0 125 0 125 -90 0 -90 0 0 -125z"/>
<path d="M7437 8634 c-4 -4 -7 -65 -7 -136 l0 -128 85 0 85 0 0 130 0 130 -49
0 c-27 0 -61 3 -77 6 -16 3 -32 2 -37 -2z"/>
<path d="M9252 8503 l3 -128 78 -3 77 -3 0 131 0 130 -80 0 -81 0 3 -127z"/>
<path d="M7772 8310 c-9 -15 -23 -20 -52 -20 l-40 0 0 -124 0 -124 160 -1 160
-1 0 125 0 125 -104 0 c-98 0 -105 1 -108 20 l-3 21 -13 -21z"/>
<path d="M9620 8165 c0 -118 1 -125 20 -125 19 0 20 7 20 125 0 118 -1 125
-20 125 -19 0 -20 -7 -20 -125z"/>
<path d="M9740 8165 l0 -126 103 3 102 3 5 108 c3 60 1 115 -3 123 -6 11 -32
14 -107 14 l-100 0 0 -125z"/>
<path d="M9985 8266 c-6 -6 -9 -56 -8 -111 1 -93 3 -100 22 -103 20 -3 21 1
21 106 0 79 -4 111 -13 115 -6 2 -17 -1 -22 -7z"/>
<path d="M9961 8204 c0 -11 3 -14 6 -6 3 7 2 16 -1 19 -3 4 -6 -2 -5 -13z"/>
<path d="M7920 7834 c0 -124 0 -125 23 -122 21 3 22 7 25 126 l3 122 -26 0
-25 0 0 -126z"/>
<path d="M8160 7501 l0 -128 49 -5 c76 -7 77 -9 72 -180 l-3 -149 78 3 79 3 0
115 0 115 -57 8 c-53 8 -56 11 -60 39 -4 22 1 37 15 51 11 11 15 22 10 26 -13
8 -15 81 -3 81 6 0 10 5 10 11 0 5 -4 7 -10 4 -6 -4 -10 12 -10 39 0 25 4 46
9 46 5 0 4 11 -2 25 -11 24 -16 25 -94 25 l-83 0 0 -129z"/>
<path d="M10388 7313 c7 -3 16 -2 19 1 4 3 -2 6 -13 5 -11 0 -14 -3 -6 -6z"/>
<path d="M8040 7165 c0 -118 1 -125 20 -125 19 0 20 7 20 125 0 118 -1 125
-20 125 -19 0 -20 -7 -20 -125z"/>
<path d="M8524 7277 c-2 -7 -3 -62 -2 -123 l3 -109 38 -3 37 -3 0 125 0 126
-35 0 c-20 0 -38 -6 -41 -13z"/>
<path d="M9978 7283 c-2 -5 -3 -26 -3 -48 1 -22 2 -75 3 -117 2 -71 4 -78 22
-78 19 0 20 7 20 109 0 60 3 116 6 125 5 12 0 16 -19 16 -14 0 -27 -3 -29 -7z"/>
<path d="M10100 7165 c0 -117 1 -125 19 -125 18 0 20 9 23 125 3 124 3 125
-19 125 -23 0 -23 -2 -23 -125z"/>
<path d="M8880 7020 c0 -13 7 -20 20 -20 13 0 20 7 20 20 0 13 -7 20 -20 20
-13 0 -20 -7 -20 -20z"/>
<path d="M8560 6835 l0 -125 65 0 65 0 0 125 0 125 -65 0 -65 0 0 -125z"/>
<path d="M8770 6837 c0 -68 3 -126 6 -130 3 -3 12 -3 20 0 11 4 14 32 14 129
0 117 -1 124 -20 124 -19 0 -20 -7 -20 -123z"/>
<path d="M8920 6835 l0 -125 65 0 65 0 0 125 0 125 -65 0 -65 0 0 -125z"/>
<path d="M9130 6815 l0 -145 24 0 c17 0 23 5 22 18 -1 14 9 18 57 20 l57 3 0
124 0 123 -80 1 -80 0 0 -144z"/>
<path d="M9370 6835 l0 -125 160 0 160 0 0 125 0 125 -160 0 -160 0 0 -125z"/>
<path d="M9770 6836 l0 -124 125 -1 125 -2 0 126 0 125 -125 0 -125 0 0 -124z"/>
<path d="M10090 6835 l0 -125 145 0 145 0 0 125 0 125 -145 0 -145 0 0 -125z"/>
<path d="M8730 6690 c0 -13 7 -20 20 -20 13 0 20 7 20 20 0 13 -7 20 -20 20
-13 0 -20 -7 -20 -20z"/>
<path d="M8560 6498 l0 -133 65 3 65 4 0 129 0 129 -65 0 -65 0 0 -132z"/>
<path d="M8770 6500 l0 -130 160 0 160 0 0 130 0 130 -160 0 -160 0 0 -130z"/>
<path d="M9010 6165 l0 -125 140 0 140 0 0 125 0 125 -140 0 -140 0 0 -125z"/>
<path d="M7798 4838 c3 -119 4 -128 23 -128 18 0 19 8 19 124 0 120 -1 124
-22 128 l-23 4 3 -128z"/>
<path d="M7560 4494 c0 -120 2 -136 20 -154 11 -11 15 -22 10 -25 -6 -4 -10
-3 -10 2 0 4 -5 1 -10 -7 -5 -8 -10 -72 -10 -142 l0 -128 160 0 160 0 0 163
c1 89 2 222 3 295 l2 132 -162 -1 -163 -2 0 -133z"/>
<path d="M7927 3964 c-4 -4 -7 -62 -7 -128 l0 -121 160 -3 160 -3 0 126 0 125
-139 0 c-77 0 -146 2 -153 5 -8 3 -17 2 -21 -1z"/>
<path d="M8400 3500 c0 -123 1 -130 20 -130 19 0 20 7 20 130 0 123 -1 130
-20 130 -19 0 -20 -7 -20 -130z"/>
<path d="M8520 3500 l0 -130 100 0 100 0 0 130 0 130 -100 0 -100 0 0 -130z"/>
<path d="M8800 3500 c0 -123 1 -130 20 -130 19 0 20 7 20 130 0 123 -1 130
-20 130 -19 0 -20 -7 -20 -130z"/>
<path d="M9240 3165 l0 -125 25 0 25 0 0 125 0 125 -25 0 -25 0 0 -125z"/>
<path d="M9370 3165 l0 -125 160 0 160 0 0 125 0 125 -160 0 -160 0 0 -125z"/>
<path d="M7537 13403 c-4 -3 -7 -13 -7 -21 0 -12 3 -12 15 -2 8 7 15 16 15 21
0 11 -14 12 -23 2z"/>
<path d="M9315 10071 c-3 -5 -1 -12 5 -16 5 -3 10 1 10 9 0 18 -6 21 -15 7z"/>
</g>
</svg>
