<?xml version="1.0" standalone="no"?>
<!DOCTYPE svg PUBLIC "-//W3C//DTD SVG 20010904//EN"
 "http://www.w3.org/TR/2001/REC-SVG-20010904/DTD/svg10.dtd">
<svg version="1.0" xmlns="http://www.w3.org/2000/svg"
 width="640.000000pt" height="640.000000pt" viewBox="0 0 640.000000 640.000000"
 preserveAspectRatio="xMidYMid meet">
<metadata>
Created by potrace 1.14, written by Peter Selinger 2001-2017
</metadata>
<g transform="translate(0.000000,640.000000) scale(0.100000,-0.100000)"
fill="#000000" stroke="none">
<path d="M2998 6396 c-1 -2 -41 -6 -88 -10 -47 -3 -94 -8 -105 -10 -11 -2 -42
-7 -70 -10 -162 -22 -378 -73 -539 -127 -603 -203 -1086 -542 -1511 -1060
-147 -178 -326 -481 -430 -724 -77 -181 -171 -492 -201 -665 -4 -25 -8 -47 -9
-50 -1 -3 -5 -32 -9 -65 -5 -33 -10 -69 -12 -80 -19 -101 -26 -560 -11 -698
69 -641 298 -1206 689 -1697 211 -265 550 -566 813 -721 32 -19 71 -42 89 -53
114 -68 350 -179 491 -230 158 -57 399 -124 500 -140 104 -16 183 -28 205 -32
69 -12 225 -19 410 -19 186 0 255 4 390 20 83 9 274 45 355 65 44 12 90 23
102 26 112 23 409 139 581 226 370 187 678 426 977 758 92 103 265 340 327
450 14 25 44 78 67 118 47 82 106 205 156 327 30 72 113 313 119 347 1 7 8 31
14 53 6 22 13 51 16 65 3 14 8 36 11 50 9 38 34 180 41 230 3 25 8 54 10 65
19 92 26 527 11 675 -11 113 -24 219 -33 265 -2 11 -7 34 -10 50 -26 146 -85
360 -139 505 -169 453 -404 819 -745 1160 -365 365 -765 613 -1255 778 -97 33
-303 89 -361 98 -20 3 -46 8 -58 10 -11 2 -37 7 -56 10 -19 3 -46 7 -60 10
-14 2 -47 6 -75 9 -27 3 -63 8 -80 11 -33 5 -511 14 -517 10z"/>
</g>
</svg>
