<?xml version="1.0" standalone="no"?>
<!DOCTYPE svg PUBLIC "-//W3C//DTD SVG 20010904//EN"
 "http://www.w3.org/TR/2001/REC-SVG-20010904/DTD/svg10.dtd">
<svg version="1.0" xmlns="http://www.w3.org/2000/svg"
 width="120.000000pt" height="120.000000pt" viewBox="0 0 120.000000 120.000000"
 preserveAspectRatio="xMidYMid meet">
<metadata>
Created by potrace 1.14, written by Peter Selinger 2001-2017
</metadata>
<g transform="translate(0.000000,120.000000) scale(0.100000,-0.100000)"
fill="#000000" stroke="none">
<path d="M209 1128 c-16 -10 -30 -23 -30 -30 -7 -65 -5 -960 2 -984 6 -18 20
-36 35 -43 17 -7 136 -11 389 -11 l364 0 28 24 28 24 0 383 1 383 -133 133
c-73 73 -141 133 -150 134 -10 1 -128 2 -262 3 -215 1 -247 -1 -272 -16z"/>
</g>
</svg>
